<?xml version="1.0" encoding="UTF-8" standalone="no"?>
<!-- Created with Inkscape (http://www.inkscape.org/) -->

<svg
   xmlns:dc="http://purl.org/dc/elements/1.1/"
   xmlns:cc="http://creativecommons.org/ns#"
   xmlns:rdf="http://www.w3.org/1999/02/22-rdf-syntax-ns#"
   xmlns:svg="http://www.w3.org/2000/svg"
   xmlns="http://www.w3.org/2000/svg"
   xmlns:xlink="http://www.w3.org/1999/xlink"
   xmlns:sodipodi="http://sodipodi.sourceforge.net/DTD/sodipodi-0.dtd"
   xmlns:inkscape="http://www.inkscape.org/namespaces/inkscape"
   width="98"
   height="97"
   id="svg3200"
   sodipodi:version="0.32"
   inkscape:version="0.47 r22583"
   version="1.0"
   sodipodi:docname="icon.svg"
   inkscape:output_extension="org.inkscape.output.svg.inkscape"
   inkscape:export-filename="/home/thutt/Desktop/icon.png"
   inkscape:export-xdpi="102"
   inkscape:export-ydpi="102">
  <defs
     id="defs3202">
    <linearGradient
       id="linearGradient3608">
      <stop
         style="stop-color:#dee7f9;stop-opacity:1;"
         offset="0"
         id="stop3610" />
      <stop
         style="stop-color:#9b9b9b;stop-opacity:1;"
         offset="1"
         id="stop3612" />
    </linearGradient>
    <inkscape:perspective
       sodipodi:type="inkscape:persp3d"
       inkscape:vp_x="0 : 526.18109 : 1"
       inkscape:vp_y="0 : 1000 : 0"
       inkscape:vp_z="744.09448 : 526.18109 : 1"
       inkscape:persp3d-origin="372.04724 : 350.78739 : 1"
       id="perspective3208" />
    <filter
       inkscape:collect="always"
       id="filter3744">
      <feGaussianBlur
         inkscape:collect="always"
         stdDeviation="2.16"
         id="feGaussianBlur3746" />
    </filter>
    <inkscape:perspective
       id="perspective2458"
       inkscape:persp3d-origin="372.04724 : 350.78739 : 1"
       inkscape:vp_z="744.09448 : 526.18109 : 1"
       inkscape:vp_y="0 : 1000 : 0"
       inkscape:vp_x="0 : 526.18109 : 1"
       sodipodi:type="inkscape:persp3d" />
    <inkscape:perspective
       id="perspective2532"
       inkscape:persp3d-origin="372.04724 : 350.78739 : 1"
       inkscape:vp_z="744.09448 : 526.18109 : 1"
       inkscape:vp_y="0 : 1000 : 0"
       inkscape:vp_x="0 : 526.18109 : 1"
       sodipodi:type="inkscape:persp3d" />
    <inkscape:perspective
       id="perspective2680"
       inkscape:persp3d-origin="372.04724 : 350.78739 : 1"
       inkscape:vp_z="744.09448 : 526.18109 : 1"
       inkscape:vp_y="0 : 1000 : 0"
       inkscape:vp_x="0 : 526.18109 : 1"
       sodipodi:type="inkscape:persp3d" />
    <inkscape:perspective
       id="perspective2749"
       inkscape:persp3d-origin="372.04724 : 350.78739 : 1"
       inkscape:vp_z="744.09448 : 526.18109 : 1"
       inkscape:vp_y="0 : 1000 : 0"
       inkscape:vp_x="0 : 526.18109 : 1"
       sodipodi:type="inkscape:persp3d" />
    <inkscape:perspective
       sodipodi:type="inkscape:persp3d"
       inkscape:vp_x="0 : 526.18109 : 1"
       inkscape:vp_y="0 : 1000 : 0"
       inkscape:vp_z="744.09448 : 526.18109 : 1"
       inkscape:persp3d-origin="372.04724 : 350.78739 : 1"
       id="perspective2474" />
    <inkscape:perspective
       id="perspective10"
       inkscape:persp3d-origin="372.04724 : 350.78739 : 1"
       inkscape:vp_z="744.09448 : 526.18109 : 1"
       inkscape:vp_y="0 : 1000 : 0"
       inkscape:vp_x="0 : 526.18109 : 1"
       sodipodi:type="inkscape:persp3d" />
    <linearGradient
       inkscape:collect="always"
       xlink:href="#linearGradient3608"
       id="linearGradient3614"
       x1="37.575054"
       y1="8.3072872"
       x2="48.174576"
       y2="97.705788"
       gradientUnits="userSpaceOnUse"
       spreadMethod="pad" />
  </defs>
  <sodipodi:namedview
     id="base"
     pagecolor="#ffffff"
     bordercolor="#666666"
     borderopacity="1.0"
     gridtolerance="10000"
     guidetolerance="10"
     objecttolerance="10"
     inkscape:pageopacity="0.0"
     inkscape:pageshadow="2"
     inkscape:zoom="7.919596"
     inkscape:cx="28.781599"
     inkscape:cy="53.370918"
     inkscape:document-units="px"
     inkscape:current-layer="layer1"
     showgrid="false"
     inkscape:window-width="1278"
     inkscape:window-height="850"
     inkscape:window-x="0"
     inkscape:window-y="25"
     inkscape:window-maximized="0" />
  <metadata
     id="metadata3205">
    <rdf:RDF>
      <cc:Work
         rdf:about="">
        <dc:format>image/svg+xml</dc:format>
        <dc:type
           rdf:resource="http://purl.org/dc/dcmitype/StillImage" />
        <dc:title></dc:title>
      </cc:Work>
    </rdf:RDF>
  </metadata>
  <g
     inkscape:label="Layer 1"
     inkscape:groupmode="layer"
     id="layer1">
    <rect
       style="fill:#ffffff;stroke:#000000;stroke-width:2.80535126000000012;stroke-linejoin:miter;stroke-miterlimit:4;stroke-opacity:1;stroke-dasharray:none;stroke-dashoffset:0;fill-opacity:1"
       id="rect2836"
       width="61.194649"
       height="57.194649"
       x="17.706614"
       y="15.280207"
       ry="4.9693203" />
    <text
       xml:space="preserve"
       style="font-size:72;font-style:normal;font-variant:normal;font-weight:normal;font-stretch:normal;fill:#000000;fill-opacity:1;stroke:none;stroke-width:1px;stroke-linecap:butt;stroke-linejoin:miter;stroke-opacity:1;font-family:RoadSign;-inkscape-font-specification:RoadSign"
       x="-35.535713"
       y="68.785713"
       id="text3301"><tspan
         sodipodi:role="line"
         id="tspan3303"
         x="-35.535713"
         y="68.785713" /></text>
    <text
       xml:space="preserve"
       style="font-size:72px;font-style:normal;font-variant:normal;font-weight:normal;font-stretch:normal;fill:#000000;fill-opacity:1;stroke:none;stroke-width:1px;stroke-linecap:butt;stroke-linejoin:miter;stroke-opacity:1;font-family:RoadSign;-inkscape-font-specification:RoadSign"
       x="-14.285714"
       y="63.25"
       id="text3305"><tspan
         sodipodi:role="line"
         id="tspan3307"
         x="-14.285714"
         y="63.25" /></text>
    <text
       xml:space="preserve"
       style="font-size:72px;font-style:normal;font-variant:normal;font-weight:normal;font-stretch:normal;fill:#000000;fill-opacity:1;stroke:none;stroke-width:1px;stroke-linecap:butt;stroke-linejoin:miter;stroke-opacity:1;font-family:RoadSign;-inkscape-font-specification:RoadSign"
       x="-10.535714"
       y="52.535713"
       id="text3309"><tspan
         sodipodi:role="line"
         id="tspan3311"
         x="-10.535714"
         y="52.535713" /></text>
    <path
       style="font-size:72px;font-style:normal;font-variant:normal;font-weight:normal;font-stretch:normal;fill:#000000;fill-opacity:1;stroke:none;stroke-width:1px;stroke-linecap:butt;stroke-linejoin:miter;stroke-opacity:1;font-family:DNR Recreation Symbols;-inkscape-font-specification:DNR Recreation Symbols"
       d="M 57.120282,25.87914 C 57.120244,24.727187 56.712245,23.767188 55.896282,22.99914 C 55.128246,22.23119 54.168247,21.84719 53.016282,21.84714 C 51.91225,21.84719 50.952251,22.25519 50.136282,23.07114 C 49.368252,23.839188 48.984253,24.775187 48.984282,25.87914 C 48.984253,26.983185 49.368252,27.943184 50.136282,28.75914 C 50.952251,29.527183 51.91225,29.911182 53.016282,29.91114 C 54.168247,29.911182 55.128246,29.527183 55.896282,28.75914 C 56.712245,27.991184 57.120244,27.031185 57.120282,25.87914"
       id="path3555" />
    <path
       style="font-size:72px;font-style:normal;font-variant:normal;font-weight:normal;font-stretch:normal;fill:none;stroke:#000000;stroke-width:2.63470864;stroke-linecap:butt;stroke-linejoin:miter;stroke-miterlimit:4;stroke-opacity:1;stroke-dasharray:none;font-family:DNR Recreation Symbols;-inkscape-font-specification:DNR Recreation Symbols"
       d="m 72.275699,55.32714 c -4.8e-5,-2.655769 -0.948542,-4.911077 -2.845485,-6.765932 -1.854878,-1.896966 -4.110186,-2.84546 -6.765932,-2.845485 -2.655821,2.5e-5 -4.932207,0.948519 -6.829165,2.845485 -1.854863,1.854855 -2.78228,4.110163 -2.782252,6.765932 -2.8e-5,2.655799 0.927389,4.932184 2.782252,6.829165 1.896958,1.854841 4.173344,2.782257 6.829165,2.782252 2.655746,5e-6 4.911054,-0.927411 6.765932,-2.782252 1.896943,-1.896981 2.845437,-4.173366 2.845485,-6.829165"
       id="path3553" />
    <path
       style="font-size:72px;font-style:normal;font-variant:normal;font-weight:normal;font-stretch:normal;fill:#000000;fill-opacity:1;stroke:none;font-family:DNR Recreation Symbols;-inkscape-font-specification:DNR Recreation Symbols"
       d="m 59.461711,38.116283 c -4e-5,-1.199964 -0.576039,-1.799964 -1.728,-1.8 l -4.824,0 -3.6,-6.768 c -0.576029,-0.815956 -1.368029,-1.223956 -2.376,-1.224 -1.056026,4.4e-5 -1.848026,0.384044 -2.376,1.152 l -7.776,7.632 c -0.624017,0.624035 -0.936016,1.488034 -0.936,2.592 -1.6e-5,1.440031 0.455983,2.40003 1.368,2.88 l 8.784,4.824 -0.072,8.784 c -2.6e-5,1.440015 0.719973,2.160014 2.16,2.16 1.48797,1.4e-5 2.231969,-0.719985 2.232,-2.16 l 0,-10.8 c -3.1e-5,-0.575972 -0.264031,-1.319972 -0.792,-2.232 l -5.904,-3.168 4.752,-4.824 2.016,3.888 c 0.287969,0.528033 0.791968,0.792033 1.512,0.792 l 5.76,0 c 1.199961,3.3e-5 1.79996,-0.575967 1.8,-1.728"
       id="path3551" />
    <path
       style="font-size:72px;font-style:normal;font-variant:normal;font-weight:normal;font-stretch:normal;fill:none;stroke:#000000;stroke-width:2.63470864;stroke-linecap:butt;stroke-linejoin:miter;stroke-miterlimit:4;stroke-opacity:1;stroke-dasharray:none;font-family:DNR Recreation Symbols;-inkscape-font-specification:DNR Recreation Symbols"
       d="m 43.835699,55.32714 c -2.3e-5,-2.655769 -0.948516,-4.911077 -2.845485,-6.765932 -1.854853,-1.896966 -4.110162,-2.84546 -6.765932,-2.845485 -2.655797,2.5e-5 -4.932182,0.948519 -6.829165,2.845485 -1.854839,1.854855 -2.782255,4.110163 -2.782252,6.765932 -3e-6,2.655799 0.927413,4.932184 2.782252,6.829165 1.896983,1.854841 4.173368,2.782257 6.829165,2.782252 2.65577,5e-6 4.911079,-0.927411 6.765932,-2.782252 1.896969,-1.896981 2.845462,-4.173366 2.845485,-6.829165"
       id="path3549" />
  </g>
</svg>
